<?xml version="1.0" standalone="no"?>
<!DOCTYPE svg PUBLIC "-//W3C//DTD SVG 1.1//EN" 
  "http://www.w3.org/Graphics/SVG/1.1/DTD/svg11.dtd">
<svg width="6cm" height="8cm" 
     viewBox="0 -50 276 350" version="1.1"
     xmlns="http://www.w3.org/2000/svg">
    <title>Arvore binaria</title>
        
  <text x="130" y="-4" 
        font-family="Times new roman" font-size="15" fill="black" >
    raiz
  </text>
  <circle cx="140" cy="0" r="2"
        fill="black" stroke="black" stroke-width="1"  />        

  <path d="M 140 0 L 112.5 50 "
        fill="none" stroke="black" stroke-width="2"/>

  <circle cx="112.5" cy="50" r="2"
        fill="black" stroke="black" stroke-width="1"  />        

  <path d="M 112.5 50 L 75 125 "
        fill="none" stroke="black" stroke-width="2"/>

  <circle cx="75" cy="125" r="2"
        fill="black" stroke="black" stroke-width="1"  />        

  <text x="65" y="120" 
        font-family="Times new roman" font-size="15" fill="black" font-style="italic">
    v
  </text>
    
  <path d="M 75 125 L 50 175 "
        fill="none" stroke="black" stroke-width="1" stroke-dasharray="5,2"/>

  <path d="M 50 175 L 25 225 75 225 Z "
        fill="none" stroke="black" stroke-width="1"/>

  <text x="40" y="215" 
        font-family="Times new roman" font-size="20" fill="black" font-style="italic">
    A
  </text>
    
  <circle cx="125" cy="175" r="2"
        fill="black" stroke="black" stroke-width="1"  />        

  <text x="110" y="180" 
        font-family="Times new roman" font-size="15" fill="black" font-style="italic">
    u
  </text>
    
  <path d="M 75 125 L 125 175 "
        fill="none" stroke="black" stroke-width="2"/>

  <circle cx="100" cy="225" r="2"
        fill="black" stroke="black" stroke-width="1"  />        

  <path d="M 125 175 L 100 225 "
        fill="none" stroke="black" stroke-width="2"/>

  <circle cx="75" cy="275" r="2"
        fill="white" stroke="black" stroke-width="1"  />        

  <path d="M 100 225 L 75 274 "
        fill="none" stroke="black" stroke-width="1" stroke-dasharray="5,2"/>
    
  <circle cx="125" cy="275" r="2"
        fill="white" stroke="black" stroke-width="1"  />        

  <path d="M 100 225 L 125 274 "
        fill="none" stroke="black" stroke-width="1" stroke-dasharray="5,2"/>
    
  <circle cx="175" cy="100" r="2"
        fill="black" stroke="black" stroke-width="1"  />        

  <text x="160" y="105" 
        font-family="Times new roman" font-size="15" fill="black" font-style="italic">
    x
  </text>
    
  <path d="M 112.5 50 L 175 100 "
        fill="none" stroke="black" stroke-width="2"/>

  <path d="M 175 100 L 160 125 "
        fill="none" stroke="black" stroke-width="1" stroke-dasharray="5,2"/>

  <path d="M 160 125 L 135 175 185 175 Z "
        fill="none" stroke="black" stroke-width="1"/>

  <text x="150" y="165" 
        font-family="Times new roman" font-size="20" fill="black" font-style="italic">
    C
  </text>
    
  <path d="M 125 175 L 150 200 "
        fill="none" stroke="black" stroke-width="1" stroke-dasharray="5,2"/>

  <path d="M 150 200 L 125 250 175 250 Z "
        fill="none" stroke="black" stroke-width="1"/>

  <text x="140" y="240" 
        font-family="Times new roman" font-size="20" fill="black" font-style="italic">
    B
  </text>
    
  <path d="M 140 0 L 200 40 "
        fill="none" stroke="black" stroke-width="1" stroke-dasharray="5,2"/>

  <path d="M 200 40 L 175 90 225 90 Z "
        fill="none" stroke="black" stroke-width="1"/>

  <text x="190" y="80" 
        font-family="Times new roman" font-size="20" fill="black" font-style="italic">
    E
  </text>
    
  <path d="M 175 100 L 225 150 "
        fill="none" stroke="black" stroke-width="2"/>

  <circle cx="225" cy="150" r="2"
        fill="black" stroke="black" stroke-width="1"  />        

  <text x="232" y="150" 
        font-family="Times new roman" font-size="15" fill="black" font-style="italic">
    y
  </text>
    
  <path d="M 225 150 L 200 225 "
        fill="none" stroke="black" stroke-width="2"/>

  <circle cx="200" cy="225" r="2"
        fill="black" stroke="black" stroke-width="1"  />        

  <path d="M 200 225 L 175 274 "
        fill="none" stroke="black" stroke-width="1" stroke-dasharray="5,2"/>
    
  <circle cx="175" cy="275" r="2"
        fill="white" stroke="black" stroke-width="1"  />        

  <path d="M 200 225 L 225 274 "
        fill="none" stroke="black" stroke-width="1" stroke-dasharray="5,2"/>
    
  <circle cx="225" cy="275" r="2"
        fill="white" stroke="black" stroke-width="1"  />        

  <path d="M 225 150 L 250 200 "
        fill="none" stroke="black" stroke-width="1" stroke-dasharray="5,2"/>

  <path d="M 250 200 L 225 250 275 250 Z "
        fill="none" stroke="black" stroke-width="1"/>

  <text x="240" y="240" 
        font-family="Times new roman" font-size="20" fill="black" font-style="italic">
    D
  </text>
    
  <text x="67" y="290" 
        font-family="Times new roman" font-size="15" fill="black" font-style="italic">
    j - 1
  </text>
    
  <text x="70" y="296" 
        font-family="Times new roman" font-size="11" fill="black" font-style="italic">
    1
  </text>

  <text x="120" y="290" 
        font-family="Times new roman" font-size="15" fill="black" font-style="italic">
    j
  </text>
    
  <text x="123" y="296" 
        font-family="Times new roman" font-size="11" fill="black" font-style="italic">
    1
  </text>
    
  <text x="215" y="290" 
        font-family="Times new roman" font-size="15" fill="black" font-style="italic">
    j +1
  </text>
    
  <text x="218" y="296" 
        font-family="Times new roman" font-size="11" fill="black" font-style="italic">
    2
  </text>
    
  <text x="170" y="290" 
        font-family="Times new roman" font-size="15" fill="black" font-style="italic">
    j
  </text>
    
  <text x="173" y="296" 
        font-family="Times new roman" font-size="11" fill="black" font-style="italic">
    2
  </text>
    
</svg>
