<?xml version="1.0" standalone="no"?>
<!DOCTYPE svg PUBLIC "-//W3C//DTD SVG 1.1//EN"
"http://www.w3.org/Graphics/SVG/1.1/DTD/svg11.dtd">
<!-- Creator: fig2dev Version 3.2 Patchlevel 5-alpha5 -->
<!-- CreationDate: Tue Dec  5 13:47:55 2006 -->
<!-- Magnification: 1.000 -->
<svg xmlns="http://www.w3.org/2000/svg" width="2.5in" height="3.1in" viewBox="1040 168 3003 3669">
<g style="stroke-width:.025in; stroke:black; fill:none">
<!-- Line -->
<polyline points="2130,750
3000,750
" style="stroke:#ffa1a1;stroke-width:15;
stroke-linejoin:miter; stroke-linecap:butt;
"/>
<!-- Arrowhead on XXXpoint -->
<polyline points="2223 727
2133 750
2223 772
" style="stroke:#ffa1a1;stroke-width:15;
"/>
<!-- Line -->
<polyline points="2100,582
2970,582
" style="stroke:#0000d1;stroke-width:15;
stroke-linejoin:miter; stroke-linecap:butt;
"/>
<!-- Arrowhead on XXXpoint -->
<polyline points="2877 604
2967 582
2877 559
" style="stroke:#0000d1;stroke-width:15;
"/>
<!-- Line -->
<polyline points="1230,750
2100,750
" style="stroke:#ffa1a1;stroke-width:15;
stroke-linejoin:miter; stroke-linecap:butt;
"/>
<!-- Arrowhead on XXXpoint -->
<polyline points="1323 727
1233 750
1323 772
" style="stroke:#ffa1a1;stroke-width:15;
"/>
<!-- Line -->
<polyline points="3030,750
3900,750
" style="stroke:#ffa1a1;stroke-width:15;
stroke-linejoin:miter; stroke-linecap:butt;
"/>
<!-- Arrowhead on XXXpoint -->
<polyline points="3123 727
3033 750
3123 772
" style="stroke:#ffa1a1;stroke-width:15;
"/>
<!-- Line -->
<polyline points="3000,582
3870,582
" style="stroke:#0000d1;stroke-width:15;
stroke-linejoin:miter; stroke-linecap:butt;
"/>
<!-- Arrowhead on XXXpoint -->
<polyline points="3777 604
3867 582
3777 559
" style="stroke:#0000d1;stroke-width:15;
"/>
<!-- Line -->
<polyline points="1200,582
2070,582
" style="stroke:#0000d1;stroke-width:15;
stroke-linejoin:miter; stroke-linecap:butt;
"/>
<!-- Arrowhead on XXXpoint -->
<polyline points="1977 604
2067 582
1977 559
" style="stroke:#0000d1;stroke-width:15;
"/>
<!-- Line -->
<polyline points="3589,2650
3386,2870
" style="stroke:#000000;stroke-width:15;
stroke-linejoin:miter; stroke-linecap:butt;
stroke-dasharray:50 50;
"/>
<!-- Arrowhead on XXXpoint -->
<polygon points="3385 2825
3326 2934
3429 2866

" style="stroke:#000000;stroke-width:15;
fill:white;"/>
<!-- Line -->
<polyline points="2347,1725
2362,1725
2385,1725
2407,1725
2430,1725
2490,1725
2512,1725
2527,1725
2535,1725
2542,1725
2550,1725
2565,1725
2587,1725
2602,1725
2625,1725
2647,1725
2670,1725
2677,1725
2692,1725
2700,1725
2707,1725
2715,1725
2722,1725
2730,1725
2737,1725
2745,1725
2752,1725
2760,1725
2767,1725
2775,1725
2782,1725
2790,1725
2797,1725
2805,1725
2812,1725
2820,1725
2820,1717
2827,1717
2835,1717
2722,1717
" style="stroke:#000000;stroke-width:15;
stroke-linejoin:miter; stroke-linecap:butt;
stroke-dasharray:50 50;
"/>
<!-- Arrowhead on XXXpoint -->
<polygon points="2690 1747
2810 1717
2690 1687

" style="stroke:#000000;stroke-width:15;
fill:white;"/>
<!-- Line -->
<polyline points="2512,960
2264,1144
" style="stroke:#000000;stroke-width:15;
stroke-linejoin:miter; stroke-linecap:butt;
stroke-dasharray:50 50;
"/>
<!-- Arrowhead on XXXpoint -->
<polygon points="2271 1100
2193 1196
2307 1148

" style="stroke:#000000;stroke-width:15;
fill:white;"/>
<!-- Line -->
<polyline points="3029,3330
3899,3330
" style="stroke:#ffa1a1;stroke-width:15;
stroke-linejoin:miter; stroke-linecap:butt;
"/>
<!-- Arrowhead on XXXpoint -->
<polyline points="3122 3307
3032 3330
3122 3352
" style="stroke:#ffa1a1;stroke-width:15;
"/>
<!-- Line -->
<polyline points="2999,3162
3869,3162
" style="stroke:#0000d1;stroke-width:15;
stroke-linejoin:miter; stroke-linecap:butt;
"/>
<!-- Arrowhead on XXXpoint -->
<polyline points="3776 3184
3866 3162
3776 3139
" style="stroke:#0000d1;stroke-width:15;
"/>
<!-- Line -->
<polyline points="1229,3330
2099,3330
" style="stroke:#ffa1a1;stroke-width:15;
stroke-linejoin:miter; stroke-linecap:butt;
"/>
<!-- Arrowhead on XXXpoint -->
<polyline points="1322 3307
1232 3330
1322 3352
" style="stroke:#ffa1a1;stroke-width:15;
"/>
<!-- Line -->
<polyline points="1199,3162
2069,3162
" style="stroke:#0000d1;stroke-width:15;
stroke-linejoin:miter; stroke-linecap:butt;
"/>
<!-- Arrowhead on XXXpoint -->
<polyline points="1976 3184
2066 3162
1976 3139
" style="stroke:#0000d1;stroke-width:15;
"/>
<!-- Line -->
<polyline points="2129,3330
2999,3330
" style="stroke:#0000d1;stroke-width:15;
stroke-linejoin:miter; stroke-linecap:butt;
"/>
<!-- Arrowhead on XXXpoint -->
<polyline points="2222 3307
2132 3330
2222 3352
" style="stroke:#0000d1;stroke-width:15;
"/>
<!-- Line -->
<polyline points="2099,3162
2969,3162
" style="stroke:#ffa1a1;stroke-width:15;
stroke-linejoin:miter; stroke-linecap:butt;
"/>
<!-- Arrowhead on XXXpoint -->
<polyline points="2876 3184
2966 3162
2876 3139
" style="stroke:#ffa1a1;stroke-width:15;
"/>
<!-- Line -->
<polyline points="3375,1920
3450,1995
3375,2070
3450,2145
3375,2220
3450,2295
3375,2370
" style="stroke:#000000;stroke-width:45;
stroke-linejoin:round; stroke-linecap:round;
"/>
<!-- Line -->
<polyline points="2752,2550
2754,2549
2758,2546
2766,2541
2778,2533
2794,2522
2816,2507
2843,2489
2875,2468
2911,2443
2951,2416
2994,2386
3039,2355
3085,2322
3132,2289
3178,2256
3223,2223
3267,2191
3309,2159
3348,2129
3385,2099
3420,2071
3452,2044
3481,2018
3508,1993
3532,1970
3554,1947
3574,1924
3592,1903
3607,1882
3621,1861
3633,1841
3643,1820
3652,1800
3660,1777
3667,1754
3672,1731
3675,1708
3677,1685
3677,1661
3675,1638
3672,1614
3667,1591
3661,1568
3654,1545
3645,1523
3635,1501
3623,1480
3610,1460
3597,1440
3582,1422
3567,1404
3550,1388
3533,1373
3516,1359
3498,1347
3480,1336
3462,1326
3444,1318
3426,1312
3407,1307
3389,1303
3370,1301
3352,1300
3334,1301
3315,1303
3297,1307
3278,1312
3260,1318
3242,1326
3224,1336
3206,1347
3188,1359
3171,1373
3154,1388
3137,1404
3122,1422
3107,1440
3094,1460
3081,1480
3069,1501
3059,1523
3050,1545
3043,1568
3037,1591
3032,1614
3029,1638
3027,1661
3027,1685
3029,1708
3032,1731
3037,1754
3044,1777
3052,1800
3061,1820
3071,1841
3083,1861
3097,1882
3112,1903
3130,1924
3150,1947
3172,1970
3196,1993
3223,2018
3252,2044
3284,2071
3319,2099
3356,2129
3395,2159
3437,2191
3481,2223
3526,2256
3572,2289
3619,2322
3665,2355
3710,2386
3753,2416
3793,2443
3829,2468
3861,2489
3888,2507
3910,2522
3926,2533
3938,2541
3946,2546
3950,2549
3952,2550
" style="stroke:#0000d1;stroke-width:15;
stroke-linejoin:bevel; stroke-linecap:butt;
"/>
<!-- Line -->
<polyline points="2827,2550
2829,2549
2833,2546
2841,2541
2853,2533
2869,2522
2891,2507
2918,2489
2950,2468
2986,2443
3026,2416
3069,2386
3114,2355
3160,2322
3207,2289
3253,2256
3298,2223
3342,2191
3384,2159
3423,2129
3460,2099
3495,2071
3527,2044
3556,2018
3583,1993
3607,1970
3629,1947
3649,1924
3667,1903
3682,1882
3696,1861
3708,1841
3718,1820
3727,1800
3735,1777
3742,1754
3747,1731
3750,1708
3752,1685
3752,1661
3750,1638
3747,1614
3742,1591
3736,1568
3729,1545
3720,1523
3710,1501
3698,1480
3685,1460
3672,1440
3657,1422
3642,1404
3625,1388
3608,1373
3591,1359
3573,1347
3555,1336
3537,1326
3519,1318
3501,1312
3482,1307
3464,1303
3445,1301
3427,1300
3409,1301
3390,1303
3372,1307
3353,1312
3335,1318
3317,1326
3299,1336
3281,1347
3263,1359
3246,1373
3229,1388
3212,1404
3197,1422
3182,1440
3169,1460
3156,1480
3144,1501
3134,1523
3125,1545
3118,1568
3112,1591
3107,1614
3104,1638
3102,1661
3102,1685
3104,1708
3107,1731
3112,1754
3119,1777
3127,1800
3136,1820
3146,1841
3158,1861
3172,1882
3187,1903
3205,1924
3225,1947
3247,1970
3271,1993
3298,2018
3327,2044
3359,2071
3394,2099
3431,2129
3470,2159
3512,2191
3556,2223
3601,2256
3647,2289
3694,2322
3740,2355
3785,2386
3828,2416
3868,2443
3904,2468
3936,2489
3963,2507
3985,2522
4001,2533
4013,2541
4021,2546
4025,2549
4027,2550
" style="stroke:#ffa1a1;stroke-width:15;
stroke-linejoin:bevel; stroke-linecap:butt;
"/>
<!-- Line -->
<polyline points="1117,2550
1119,2549
1123,2546
1131,2541
1143,2533
1159,2522
1181,2507
1208,2489
1240,2468
1276,2443
1316,2416
1359,2386
1404,2355
1450,2322
1497,2289
1543,2256
1588,2223
1632,2191
1674,2159
1713,2129
1750,2099
1785,2071
1817,2044
1846,2018
1873,1993
1897,1970
1919,1947
1939,1924
1957,1903
1972,1882
1986,1861
1998,1841
2008,1820
2017,1800
2025,1777
2032,1754
2037,1731
2040,1708
2042,1685
2042,1661
2040,1638
2037,1614
2032,1591
2026,1568
2019,1545
2010,1523
2000,1501
1988,1480
1975,1460
1962,1440
1947,1422
1932,1404
1915,1388
1898,1373
1881,1359
1863,1347
1845,1336
1827,1326
1809,1318
1791,1312
1772,1307
1754,1303
1735,1301
1717,1300
1699,1301
1680,1303
1662,1307
1643,1312
1625,1318
1607,1326
1589,1336
1571,1347
1553,1359
1536,1373
1519,1388
1502,1404
1487,1422
1472,1440
1459,1460
1446,1480
1434,1501
1424,1523
1415,1545
1408,1568
1402,1591
1397,1614
1394,1638
1392,1661
1392,1685
1394,1708
1397,1731
1402,1754
1409,1777
1417,1800
1426,1820
1436,1841
1448,1861
1462,1882
1477,1903
1495,1924
1515,1947
1537,1970
1561,1993
1588,2018
1617,2044
1649,2071
1684,2099
1721,2129
1760,2159
1802,2191
1846,2223
1891,2256
1937,2289
1984,2322
2030,2355
2075,2386
2118,2416
2158,2443
2194,2468
2226,2489
2253,2507
2275,2522
2291,2533
2303,2541
2311,2546
2315,2549
2317,2550
" style="stroke:#0000d1;stroke-width:15;
stroke-linejoin:bevel; stroke-linecap:butt;
"/>
<!-- Line -->
<polyline points="1192,2550
1194,2549
1198,2546
1206,2541
1218,2533
1234,2522
1256,2507
1283,2489
1315,2468
1351,2443
1391,2416
1434,2386
1479,2355
1525,2322
1572,2289
1618,2256
1663,2223
1707,2191
1749,2159
1788,2129
1825,2099
1860,2071
1892,2044
1921,2018
1948,1993
1972,1970
1994,1947
2014,1924
2032,1903
2047,1882
2061,1861
2073,1841
2083,1820
2092,1800
2100,1777
2107,1754
2112,1731
2115,1708
2117,1685
2117,1661
2115,1638
2112,1614
2107,1591
2101,1568
2094,1545
2085,1523
2075,1501
2063,1480
2050,1460
2037,1440
2022,1422
2007,1404
1990,1388
1973,1373
1956,1359
1938,1347
1920,1336
1902,1326
1884,1318
1866,1312
1847,1307
1829,1303
1810,1301
1792,1300
1774,1301
1755,1303
1737,1307
1718,1312
1700,1318
1682,1326
1664,1336
1646,1347
1628,1359
1611,1373
1594,1388
1577,1404
1562,1422
1547,1440
1534,1460
1521,1480
1509,1501
1499,1523
1490,1545
1483,1568
1477,1591
1472,1614
1469,1638
1467,1661
1467,1685
1469,1708
1472,1731
1477,1754
1484,1777
1492,1800
1501,1820
1511,1841
1523,1861
1537,1882
1552,1903
1570,1924
1590,1947
1612,1970
1636,1993
1663,2018
1692,2044
1724,2071
1759,2099
1796,2129
1835,2159
1877,2191
1921,2223
1966,2256
2012,2289
2059,2322
2105,2355
2150,2386
2193,2416
2233,2443
2269,2468
2301,2489
2328,2507
2350,2522
2366,2533
2378,2541
2386,2546
2390,2549
2392,2550
" style="stroke:#ffa1a1;stroke-width:15;
stroke-linejoin:bevel; stroke-linecap:butt;
"/>
<!-- Text -->
<text x="2452" y="3773" fill="#000000"  font-family="Times" font-style="normal" font-weight="normal" font-size="120" text-anchor="middle" >
nova seq&#252;&#234;ncia</text>
<!-- Text -->
<text x="2407" y="315" fill="#000000"  font-family="Times" font-style="normal" font-weight="normal" font-size="120" text-anchor="middle" >
seq&#252;&#234;ncia original</text>
<!-- Text -->
<text x="3667" y="2235" fill="#000000"  font-family="Times" font-style="normal" font-weight="normal" font-size="120" text-anchor="middle" >
E&#180;</text>
<!-- Text -->
<text x="3959" y="2430" fill="#000000"  font-family="Times" font-style="normal" font-weight="normal" font-size="120" text-anchor="middle" >
F&#180;</text>
<!-- Text -->
<text x="3817" y="2625" fill="#000000"  font-family="Times" font-style="normal" font-weight="normal" font-size="120" text-anchor="middle" >
F</text>
<!-- Text -->
<text x="3517" y="2400" fill="#000000"  font-family="Times" font-style="normal" font-weight="normal" font-size="120" text-anchor="middle" >
E</text>
<!-- Text -->
<text x="3314" y="1950" fill="#000000"  font-family="Times" font-style="normal" font-weight="normal" font-size="120" text-anchor="middle" >
D&#180;</text>
<!-- Text -->
<text x="3074" y="2040" fill="#000000"  font-family="Times" font-style="normal" font-weight="normal" font-size="120" text-anchor="middle" >
D</text>
<!-- Text -->
<text x="3727" y="2055" fill="#000000"  font-family="Times" font-style="normal" font-weight="normal" font-size="120" text-anchor="middle" >
C&#180;</text>
<!-- Text -->
<text x="3517" y="1935" fill="#000000"  font-family="Times" font-style="normal" font-weight="normal" font-size="120" text-anchor="middle" >
C</text>
<!-- Text -->
<text x="3307" y="2392" fill="#000000"  font-family="Times" font-style="normal" font-weight="normal" font-size="120" text-anchor="middle" >
B&#180;</text>
<!-- Text -->
<text x="3157" y="2227" fill="#000000"  font-family="Times" font-style="normal" font-weight="normal" font-size="120" text-anchor="middle" >
B</text>
<!-- Text -->
<text x="2977" y="2625" fill="#000000"  font-family="Times" font-style="normal" font-weight="normal" font-size="120" text-anchor="middle" >
A&#180;</text>
<!-- Text -->
<text x="2752" y="2475" fill="#000000"  font-family="Times" font-style="normal" font-weight="normal" font-size="120" text-anchor="middle" >
A</text>
<!-- Text -->
<text x="2032" y="2235" fill="#000000"  font-family="Times" font-style="normal" font-weight="normal" font-size="120" text-anchor="middle" >
E&#180;</text>
<!-- Text -->
<text x="2324" y="2430" fill="#000000"  font-family="Times" font-style="normal" font-weight="normal" font-size="120" text-anchor="middle" >
F&#180;</text>
<!-- Text -->
<text x="2182" y="2625" fill="#000000"  font-family="Times" font-style="normal" font-weight="normal" font-size="120" text-anchor="middle" >
F</text>
<!-- Text -->
<text x="1882" y="2400" fill="#000000"  font-family="Times" font-style="normal" font-weight="normal" font-size="120" text-anchor="middle" >
E</text>
<!-- Text -->
<text x="1679" y="1950" fill="#000000"  font-family="Times" font-style="normal" font-weight="normal" font-size="120" text-anchor="middle" >
D&#180;</text>
<!-- Text -->
<text x="1439" y="2040" fill="#000000"  font-family="Times" font-style="normal" font-weight="normal" font-size="120" text-anchor="middle" >
D</text>
<!-- Text -->
<text x="2092" y="2055" fill="#000000"  font-family="Times" font-style="normal" font-weight="normal" font-size="120" text-anchor="middle" >
C&#180;</text>
<!-- Text -->
<text x="1882" y="1935" fill="#000000"  font-family="Times" font-style="normal" font-weight="normal" font-size="120" text-anchor="middle" >
C</text>
<!-- Text -->
<text x="1672" y="2392" fill="#000000"  font-family="Times" font-style="normal" font-weight="normal" font-size="120" text-anchor="middle" >
B&#180;</text>
<!-- Text -->
<text x="1522" y="2227" fill="#000000"  font-family="Times" font-style="normal" font-weight="normal" font-size="120" text-anchor="middle" >
B</text>
<!-- Text -->
<text x="1342" y="2625" fill="#000000"  font-family="Times" font-style="normal" font-weight="normal" font-size="120" text-anchor="middle" >
A&#180;</text>
<!-- Text -->
<text x="1117" y="2475" fill="#000000"  font-family="Times" font-style="normal" font-weight="normal" font-size="120" text-anchor="middle" >
A</text>
<!-- Text -->
<text x="3825" y="900" fill="#000000"  font-family="Times" font-style="normal" font-weight="normal" font-size="120" text-anchor="middle" >
F&#180;</text>
<!-- Text -->
<text x="3075" y="900" fill="#000000"  font-family="Times" font-style="normal" font-weight="normal" font-size="120" text-anchor="middle" >
E&#180;</text>
<!-- Text -->
<text x="3075" y="525" fill="#000000"  font-family="Times" font-style="normal" font-weight="normal" font-size="120" text-anchor="middle" >
E</text>
<!-- Text -->
<text x="3825" y="525" fill="#000000"  font-family="Times" font-style="normal" font-weight="normal" font-size="120" text-anchor="middle" >
F</text>
<!-- Text -->
<text x="2025" y="900" fill="#000000"  font-family="Times" font-style="normal" font-weight="normal" font-size="120" text-anchor="middle" >
B&#180;</text>
<!-- Text -->
<text x="1275" y="900" fill="#000000"  font-family="Times" font-style="normal" font-weight="normal" font-size="120" text-anchor="middle" >
A&#180;</text>
<!-- Text -->
<text x="1275" y="525" fill="#000000"  font-family="Times" font-style="normal" font-weight="normal" font-size="120" text-anchor="middle" >
A</text>
<!-- Text -->
<text x="2025" y="525" fill="#000000"  font-family="Times" font-style="normal" font-weight="normal" font-size="120" text-anchor="middle" >
B</text>
<!-- Text -->
<text x="2925" y="900" fill="#000000"  font-family="Times" font-style="normal" font-weight="normal" font-size="120" text-anchor="middle" >
D&#180;</text>
<!-- Text -->
<text x="2175" y="900" fill="#000000"  font-family="Times" font-style="normal" font-weight="normal" font-size="120" text-anchor="middle" >
C&#180;</text>
<!-- Text -->
<text x="2175" y="525" fill="#000000"  font-family="Times" font-style="normal" font-weight="normal" font-size="120" text-anchor="middle" >
C</text>
<!-- Text -->
<text x="2925" y="525" fill="#000000"  font-family="Times" font-style="normal" font-weight="normal" font-size="120" text-anchor="middle" >
D</text>
<!-- Text -->
<text x="3824" y="3480" fill="#000000"  font-family="Times" font-style="normal" font-weight="normal" font-size="120" text-anchor="middle" >
F&#180;</text>
<!-- Text -->
<text x="3074" y="3480" fill="#000000"  font-family="Times" font-style="normal" font-weight="normal" font-size="120" text-anchor="middle" >
E&#180;</text>
<!-- Text -->
<text x="3074" y="3105" fill="#000000"  font-family="Times" font-style="normal" font-weight="normal" font-size="120" text-anchor="middle" >
E</text>
<!-- Text -->
<text x="3824" y="3105" fill="#000000"  font-family="Times" font-style="normal" font-weight="normal" font-size="120" text-anchor="middle" >
F</text>
<!-- Text -->
<text x="2024" y="3480" fill="#000000"  font-family="Times" font-style="normal" font-weight="normal" font-size="120" text-anchor="middle" >
B&#180;</text>
<!-- Text -->
<text x="1274" y="3480" fill="#000000"  font-family="Times" font-style="normal" font-weight="normal" font-size="120" text-anchor="middle" >
A&#180;</text>
<!-- Text -->
<text x="1274" y="3105" fill="#000000"  font-family="Times" font-style="normal" font-weight="normal" font-size="120" text-anchor="middle" >
A</text>
<!-- Text -->
<text x="2024" y="3105" fill="#000000"  font-family="Times" font-style="normal" font-weight="normal" font-size="120" text-anchor="middle" >
B</text>
<!-- Text -->
<text x="2924" y="3480" fill="#000000"  font-family="Times" font-style="normal" font-weight="normal" font-size="120" text-anchor="middle" >
C</text>
<!-- Text -->
<text x="2174" y="3480" fill="#000000"  font-family="Times" font-style="normal" font-weight="normal" font-size="120" text-anchor="middle" >
D</text>
<!-- Text -->
<text x="2174" y="3105" fill="#000000"  font-family="Times" font-style="normal" font-weight="normal" font-size="120" text-anchor="middle" >
D&#180;</text>
<!-- Text -->
<text x="2924" y="3105" fill="#000000"  font-family="Times" font-style="normal" font-weight="normal" font-size="120" text-anchor="middle" >
C&#180;</text>
</g>
</svg>
