<?xml version="1.0" encoding="UTF-8" standalone="no"?>
<!-- Created with Inkscape (http://www.inkscape.org/) -->
<svg
   xmlns:dc="http://purl.org/dc/elements/1.1/"
   xmlns:cc="http://web.resource.org/cc/"
   xmlns:rdf="http://www.w3.org/1999/02/22-rdf-syntax-ns#"
   xmlns:svg="http://www.w3.org/2000/svg"
   xmlns="http://www.w3.org/2000/svg"
   xmlns:sodipodi="http://sodipodi.sourceforge.net/DTD/sodipodi-0.dtd"
   xmlns:inkscape="http://www.inkscape.org/namespaces/inkscape"
   version="1.0"
   width="6cm"
   height="4cm"
   viewBox="0 0 350 220"
   id="svg3126"
   sodipodi:version="0.32"
   inkscape:version="0.44.1"
   sodipodi:docname="semigalignB.svg"
   sodipodi:docbase="C:\Documents and Settings\d\My Documents\workspace\text.tese">
  <metadata
     id="metadata47">
    <rdf:RDF>
      <cc:Work
         rdf:about="">
        <dc:format>image/svg+xml</dc:format>
        <dc:type
           rdf:resource="http://purl.org/dc/dcmitype/StillImage" />
      </cc:Work>
    </rdf:RDF>
  </metadata>
  <sodipodi:namedview
     inkscape:window-height="753"
     inkscape:window-width="1277"
     inkscape:pageshadow="2"
     inkscape:pageopacity="0.0"
     guidetolerance="10.0"
     gridtolerance="10.0"
     objecttolerance="10.0"
     borderopacity="1.0"
     bordercolor="#666666"
     pagecolor="#ffffff"
     id="base"
     inkscape:zoom="2.667"
     inkscape:cx="106.29921"
     inkscape:cy="70.866142"
     inkscape:window-x="-1"
     inkscape:window-y="-4"
     inkscape:current-layer="svg3126" />
  <defs
     id="defs3161">
    <marker
       refX="0"
       refY="0"
       orient="auto"
       style="overflow:visible"
       id="Arrow1Lend">
      <path
         d="M 0,0 L 5,-5 L -12.5,0 L 5,5 L 0,0 z "
         transform="matrix(-0.8,0,0,-0.8,-10,0)"
         style="fill-rule:evenodd;stroke:black;stroke-width:1pt;marker-start:none"
         id="path2968" />
    </marker>
    <marker
       refX="0"
       refY="0"
       orient="auto"
       style="overflow:visible"
       id="Arrow2Mend">
      <path
         d="M 8.7185878,4.0337352 L -2.2072895,0.016013256 L 8.7185884,-4.0017078 C 6.97309,-1.6296469 6.9831476,1.6157441 8.7185878,4.0337352 z "
         transform="scale(-0.6,-0.6)"
         style="font-size:12px;fill-rule:evenodd;stroke-width:0.625;stroke-linejoin:round"
         id="path2944" />
    </marker>
    <marker
       refX="0"
       refY="0"
       orient="auto"
       style="overflow:visible"
       id="Arrow2Lend">
      <path
         d="M 8.7185878,4.0337352 L -2.2072895,0.016013256 L 8.7185884,-4.0017078 C 6.97309,-1.6296469 6.9831476,1.6157441 8.7185878,4.0337352 z "
         transform="matrix(-1.1,0,0,-1.1,-1.1,0)"
         style="font-size:12px;fill-rule:evenodd;stroke-width:0.625;stroke-linejoin:round"
         id="path2950" />
    </marker>
    <marker
       refX="0"
       refY="0"
       orient="auto"
       style="overflow:visible"
       id="Dot_m">
      <path
         d="M -2.5,-1 C -2.5,1.76 -4.74,4 -7.5,4 C -10.26,4 -12.5,1.76 -12.5,-1 C -12.5,-3.76 -10.26,-6 -7.5,-6 C -4.74,-6 -2.5,-3.76 -2.5,-1 z "
         transform="matrix(0.4,0,0,0.4,2.96,0.4)"
         style="fill-rule:evenodd;stroke:black;stroke-width:1pt;marker-start:none;marker-end:none"
         id="path2906" />
    </marker>
    <marker
       refX="0"
       refY="0"
       orient="auto"
       style="overflow:visible"
       id="Dot_l">
      <path
         d="M -2.5,-1 C -2.5,1.76 -4.74,4 -7.5,4 C -10.26,4 -12.5,1.76 -12.5,-1 C -12.5,-3.76 -10.26,-6 -7.5,-6 C -4.74,-6 -2.5,-3.76 -2.5,-1 z "
         transform="matrix(0.8,0,0,0.8,5.92,0.8)"
         style="fill-rule:evenodd;stroke:black;stroke-width:1pt;marker-start:none;marker-end:none"
         id="path2909" />
    </marker>
  </defs>
  <title
     id="title3128">Edit Graph</title>
  <path
     d="M 50,50 L 300,50 L 300,200 L 50,200 L 50,50"
     style="fill:none;stroke:black;stroke-width:1"
     id="path3130" />
  <path
     d="M 119.8693,51.968063 L 275.19243,198.64922"
     style="fill:none;stroke:blue;stroke-width:1.23242247;stroke-dasharray:6.16211241, 6.16211241"
     id="path3132" />
  <path
     d="M 120.20582,100.45273 L 221.76949,200.16456"
     style="fill:none;stroke:green;stroke-width:0.67088991;stroke-dasharray:3.35444969, 3.35444969"
     id="path3134" />
  <path
     d="M 70.934603,99.329671 L 191.41107,198.81848"
     style="fill:none;stroke:red;stroke-width:0.89390749;stroke-dasharray:4.46953757, 4.46953757"
     id="path3136" />
  <path
     d="M 50,100 L 300,100"
     style="fill:none;stroke:black;stroke-width:1.00000004;stroke-dasharray:1.00000004,4.00000017;stroke-miterlimit:4;stroke-dashoffset:0"
     id="path3142" />
  <text
     x="47"
     y="45"
     style="font-size:15px;text-align:start;line-height:125%;writing-mode:lr-tb;text-anchor:start;fill:black;font-family:Times new roman"
     id="text3144">
    <tspan
       x="47"
       y="45"
       id="tspan1912">j</tspan>
  </text>
  <text
     x="295"
     y="45"
     style="font-size:15px;fill:black;font-family:Times new roman"
     id="text3146">m</text>
  <text
     x="109.87655"
     y="38.82716"
     style="font-size:15px;text-align:start;line-height:125%;writing-mode:lr-tb;text-anchor:start;fill:black;font-family:Times new roman"
     id="text3150">
    <tspan
       x="109.87655"
       y="38.82716"
       id="tspan1918">j +1</tspan>
  </text>
  <text
     x="66.666664"
     y="41.296295"
     style="font-size:15px;fill:black;font-family:Times new roman"
     id="text3152">j</text>
  <text
     x="37"
     y="60"
     style="font-size:15px;text-align:start;line-height:125%;writing-mode:lr-tb;text-anchor:start;fill:black;font-family:Times new roman"
     id="text3154">
    <tspan
       x="37"
       y="60"
       id="tspan1899">j'</tspan>
  </text>
  <text
     x="37"
     y="200"
     style="font-size:15px;text-align:start;line-height:125%;writing-mode:lr-tb;text-anchor:start;fill:black;font-family:Times new roman"
     id="text3156">
    <tspan
       x="37"
       y="200"
       id="tspan1903">j</tspan>
  </text>
  <text
     x="26.296297"
     y="103.7037"
     style="font-size:15px;text-align:start;line-height:125%;writing-mode:lr-tb;text-anchor:start;fill:black;font-family:Times new roman"
     id="text3158">
    <tspan
       x="26.296297"
       y="103.7037"
       id="tspan1910">j'+1</tspan>
  </text>
  <text
     x="71.604942"
     y="44.567898"
     style="font-size:9.87777805px;font-style:normal;font-variant:normal;font-weight:normal;font-stretch:normal;text-align:start;line-height:100%;writing-mode:lr-tb;text-anchor:start;fill:black;fill-opacity:1;stroke:none;stroke-width:1px;stroke-linecap:butt;stroke-linejoin:miter;stroke-opacity:1;font-family:Courier New"
     id="text1885"
     xml:space="preserve"><tspan
       x="71.604942"
       y="44.567898"
       id="tspan1914">3</tspan></text>
  <text
     x="113.58024"
     y="43.333332"
     style="font-size:9.87777805px;font-style:normal;font-variant:normal;font-weight:normal;font-stretch:normal;text-align:start;line-height:100%;writing-mode:lr-tb;text-anchor:start;fill:black;fill-opacity:1;stroke:none;stroke-width:1px;stroke-linecap:butt;stroke-linejoin:miter;stroke-opacity:1;font-family:Courier New"
     id="text1889"
     xml:space="preserve"><tspan
       x="113.58024"
       y="43.333332"
       id="tspan1916">3</tspan></text>
  <text
     x="206.79013"
     y="31.604935"
     style="font-size:15px;text-align:start;line-height:125%;writing-mode:lr-tb;text-anchor:start;fill:black;font-family:Times new roman"
     id="text1895"
     xml:space="preserve"><tspan
       x="206.79013"
       y="31.604935"
       id="tspan1897">t</tspan></text>
  <text
     x="21.604929"
     y="156.2963"
     style="font-size:15px;text-align:start;line-height:125%;writing-mode:lr-tb;text-anchor:start;fill:black;font-family:Times new roman"
     id="text1905"
     xml:space="preserve"><tspan
       x="21.604929"
       y="156.2963"
       id="tspan1907">t</tspan></text>
  <path
     d="M 70,50 L 70,100"
     style="fill:none;fill-rule:evenodd;stroke:red;stroke-width:1px;stroke-linecap:butt;stroke-linejoin:miter;marker-start:url(#Dot_m);marker-end:url(#Arrow1Lend);stroke-opacity:1"
     id="path1909" />
  <path
     d="M 70,50 L 120,100"
     style="fill:none;fill-rule:evenodd;stroke:lime;stroke-width:1px;stroke-linecap:butt;stroke-linejoin:miter;marker-start:url(#Dot_m);marker-end:url(#Arrow1Lend);stroke-opacity:1"
     id="path2984" />
  <path
     d="M 70,50 L 120,50"
     style="fill:none;fill-rule:evenodd;stroke:blue;stroke-width:1px;stroke-linecap:butt;stroke-linejoin:miter;marker-start:url(#Dot_m);marker-end:url(#Arrow1Lend);stroke-opacity:1"
     id="path2986" />
  <path
     d="M 149.83951 22.037035 A 2 2 0 1 1  145.83951,22.037035 A 2 2 0 1 1  149.83951 22.037035 z"
     transform="translate(-27.77778,28.39506)"
     style="opacity:1;fill:black;fill-opacity:1;stroke:black;stroke-width:0.60699999;stroke-miterlimit:4;stroke-dasharray:none;stroke-dashoffset:0;stroke-opacity:1"
     id="path4579" />
  <path
     d="M 149.83951 22.037035 A 2 2 0 1 1  145.83951,22.037035 A 2 2 0 1 1  149.83951 22.037035 z"
     transform="translate(-27.77778,78.39506)"
     style="opacity:1;fill:black;fill-opacity:1;stroke:black;stroke-width:0.60699999;stroke-miterlimit:4;stroke-dasharray:none;stroke-dashoffset:0;stroke-opacity:1"
     id="path4581" />
  <path
     d="M 149.83951 22.037035 A 2 2 0 1 1  145.83951,22.037035 A 2 2 0 1 1  149.83951 22.037035 z"
     transform="translate(-77.77779,78.39506)"
     style="opacity:1;fill:black;fill-opacity:1;stroke:black;stroke-width:0.60699999;stroke-miterlimit:4;stroke-dasharray:none;stroke-dashoffset:0;stroke-opacity:1"
     id="path4583" />
  <path
     id="path2830"
     style="fill:none;stroke:black;stroke-width:1;stroke-miterlimit:4;stroke-dasharray:1.00000004, 4.00000017;stroke-dashoffset:0"
     d="M 120,50 L 120,200" />
</svg>
