<?xml version="1.0" standalone="no"?>
<!DOCTYPE svg PUBLIC "-//W3C//DTD SVG 20000802//EN"
	"http://www.w3.org/TR/2000/CR-SVG-20000802/DTD/svg-20000802.dtd">
<svg width="5in" height="5in" viewBox="-125 -1202.5 1315 1340">
	<desc>SVG generated by compmat2svg 1.3</desc>
<rect x="-125" y="-1177.5" width="1315" height="1315" style="stroke:none;fill:white;"/>
<g style="fill:none; stroke:black; fill-opacity:1; stroke-width:0.5;">
	<polyline points="-0.25,25 -0.25,-1115 "/>
	<polyline points="544.75,25 544.75,-1115 "/>
	<polyline points="1089.75,25 1089.75,-1115 "/>
	<polyline points="871.75,25 871.75,0 "/>
	<polyline points="871.75,-1090 871.75,-1115 "/>
	<polyline points="-25,0.25 1114.75,0.25 "/>
	<polyline points="-25,-544.75 1114.75,-544.75 "/>
	<polyline points="-25,-1089.75 1114.75,-1089.75 "/>
	<polyline points="-25,-871.75 0,-871.75 "/>
	<polyline points="1089.75,-871.75 1114.75,-871.75 "/>
	</g>
<g style="fill:black; stroke:none; fill-opacity:1; stroke-width:0.5;">
	<text x="0" y="62.5" style="font-size:25" text-anchor="middle">0K</text>
	<text x="0" y="-1127.5" style="font-size:25" text-anchor="middle">0K</text>
	<text x="545" y="62.5" style="font-size:25" text-anchor="middle">545</text>
	<text x="545" y="-1127.5" style="font-size:25" text-anchor="middle">545</text>
	<text x="1090" y="62.5" style="font-size:25" text-anchor="middle">1090</text>
	<text x="1090" y="-1127.5" style="font-size:25" text-anchor="middle">1090</text>
	<text x="872" y="87.5" style="font-size:25" text-anchor="middle">872</text>
	<text x="872" y="-1152.5" style="font-size:25" text-anchor="middle">872</text>
	<g transform="translate(-37.5,-0)"><g transform="rotate(270)"><text x="0" y="0" style="font-size:25" text-anchor="middle">0K</text></g></g>
	<g transform="translate(1152.5,-0)"><g transform="rotate(270)"><text x="0" y="0" style="font-size:25" text-anchor="middle">0K</text></g></g>
	<g transform="translate(-37.5,-545)"><g transform="rotate(270)"><text x="0" y="0" style="font-size:25" text-anchor="middle">545</text></g></g>
	<g transform="translate(1152.5,-545)"><g transform="rotate(270)"><text x="0" y="0" style="font-size:25" text-anchor="middle">545</text></g></g>
	<g transform="translate(-37.5,-1090)"><g transform="rotate(270)"><text x="0" y="0" style="font-size:25" text-anchor="middle">1090</text></g></g>
	<g transform="translate(1152.5,-1090)"><g transform="rotate(270)"><text x="0" y="0" style="font-size:25" text-anchor="middle">1090</text></g></g>
	<g transform="translate(-62.5,-872)"><g transform="rotate(270)"><text x="0" y="0" style="font-size:25" text-anchor="middle">872</text></g></g>
	<g transform="translate(1177.5,-872)"><g transform="rotate(270)"><text x="0" y="0" style="font-size:25" text-anchor="middle">872</text></g></g>
	<text x="25" y="125" style="font-size:50" text-anchor="start">hg-chr7-95119414-95120280.fasta</text>
	<g transform="translate(-75,-25)"><g transform="rotate(270)"><text x="0" y="0" style="font-size:50" text-anchor="start">pantro-chr6-96726524-96727390.fasta</text></g></g>
	<text x="25" y="-1177.5" style="font-size:25" text-anchor="start">  match 2  mismatch -1  gapopen 0  gapextension 10  threshold 88  semiglobal</text>
	<text x="25" y="-1152.5" style="font-size:25" text-anchor="start">  window 100  displacement 109 X 109</text>
	</g>
<g style="fill:blue; stroke:none; fill-opacity:0.4">
	<rect x="0" y="-100" width="100" height="100" />
	<rect x="109" y="-209" width="100" height="100" />
	<rect x="218" y="-318" width="100" height="100" />
	<rect x="545" y="-645" width="100" height="100" />
	<rect x="654" y="-754" width="100" height="100" />
	<rect x="763" y="-863" width="100" height="100" />
	</g>
<g style="fill:red; stroke:none; fill-opacity:0.4">
	<rect x="327" y="-536" width="100" height="100" />
	<rect x="436" y="-427" width="100" height="100" />
	</g>
</svg>

